Coordinates
version=1
nRows=16
nColumns=22
inDegrees=yes

Units are S.I. units (second, meters, Newtons, ...)
If the header above contains a line with 'inDegrees', this indicates whether rotational values are in degrees (yes) or radians (no).

endheader
time	pelvis_tilt	pelvis_list	pelvis_rotation	pelvis_tx	pelvis_ty	pelvis_tz	hip_flexion_r	hip_adduction_r	hip_rotation_r	knee_angle_r	ankle_angle_r	subtalar_angle_r	hip_flexion_l	hip_adduction_l	hip_rotation_l	knee_angle_l	ankle_angle_l	subtalar_angle_l	lumbar_extension	lumbar_bending	lumbar_rotation
      6.22000000	     -4.09454174	      6.06501721	   -129.19089779	      0.69846326	      0.95582077	      0.71996025	     20.41085336	     11.34059976	    -16.85663531	    -25.76326388	      7.05452817	     -6.49598747	     11.95877310	    -12.39071945	      3.50546042	    -59.17908366	      6.85034326	      4.75534519	     -0.05268075	     10.30899627	    -12.25814100
      6.23000000	     -4.09989565	      6.17320455	   -130.08494526	      0.69231879	      0.95652518	      0.72372374	     19.75532807	     11.81914904	    -16.15350395	    -25.43445223	      7.26197368	     -6.45499183	     12.85601985	    -12.54458023	      3.90361471	    -59.10382354	      7.41179388	      4.47014473	     -0.04515745	     10.29189447	    -11.72776329
      6.24000000	     -4.10339999	      6.24724678	   -130.99994132	      0.68624507	      0.95729456	      0.72739375	     19.04122172	     12.27169767	    -15.37934170	    -25.05952630	      7.43018821	     -6.31487549	     13.64016341	    -12.66402281	      4.30728416	    -58.77622063	      7.94530238	      3.97623825	     -0.07237852	     10.25372996	    -11.20463600
      6.25000000	     -4.08061318	      6.38909557	   -131.91057887	      0.68027170	      0.95790871	      0.73090911	     18.41265529	     12.72733348	    -14.64154199	    -24.69984951	      7.58693542	     -6.27567279	     14.46381911	    -12.81469352	      4.74128457	    -58.27948582	      8.57832284	      3.70824473	     -0.03028699	     10.24499469	    -10.68193416
      6.26000000	     -4.06562992	      6.52016800	   -132.84231583	      0.67436445	      0.95852917	      0.73430505	     17.76365381	     13.17669578	    -13.84922466	    -24.33641883	      7.72002416	     -6.21570745	     15.20032768	    -12.97470968	      5.16310006	    -57.57923958	      9.20694115	      3.35025743	     -0.01552669	     10.23954446	    -10.14309912
      6.27000000	     -4.06392384	      6.59425814	   -133.78128265	      0.66851858	      0.95921772	      0.73764853	     17.04329937	     13.58299572	    -13.02157914	    -23.95931022	      7.85857296	     -6.09317628	     15.79882703	    -13.10821743	      5.56818847	    -56.67364680	      9.80881831	      2.71378572	     -0.06256735	     10.20519887	     -9.62542542
      6.28000000	     -4.02173609	      6.76032375	   -134.72029122	      0.66283016	      0.95970913	      0.74083029	     16.45608758	     14.00260514	    -12.20654143	    -23.62283539	      7.96371443	     -6.06501253	     16.49112004	    -13.28844486	      5.98472697	    -55.67267542	     10.44398060	      2.37258209	     -0.01762012	     10.21889496	     -9.09756066
      6.29000000	     -4.00419364	      6.82304929	   -135.67938288	      0.65718581	      0.96034963	      0.74400418	     15.74445319	     14.35807334	    -11.32221985	    -23.26543160	      8.07117901	     -5.98009517	     16.98615262	    -13.41119641	      6.35916553	    -54.47909605	     10.98497876	      1.72771452	     -0.07910856	     10.17444337	     -8.57566926
      6.30000000	     -3.93771807	      6.98367756	   -136.64112670	      0.65173343	      0.96077025	      0.74705253	     15.18745050	     14.72164022	    -10.46873802	    -22.96816021	      8.17110533	     -5.95362790	     17.59314043	    -13.57145749	      6.74499600	    -53.23148232	     11.54266572	      1.38643726	     -0.03887484	     10.18491114	     -8.04535616
      6.31000000	     -3.88846353	      7.02784698	   -137.61141411	      0.64637178	      0.96134728	      0.75015058	     14.51093608	     14.99134394	     -9.56555701	    -22.65994134	      8.27917137	     -5.87431135	     18.01403012	    -13.63586639	      7.11182367	    -51.83662720	     11.96276678	      0.85777238	     -0.10149823	     10.12528041	     -7.54447918
      6.32000000	     -3.79593100	      7.12079337	   -138.58653698	      0.64120353	      0.96178459	      0.75316023	     13.93954828	     15.24286969	     -8.66684129	    -22.40026544	      8.37583856	     -5.82005253	     18.49843048	    -13.69014927	      7.49823399	    -50.40665968	     12.31698359	      0.57035176	     -0.10321418	     10.08599060	     -7.04300786
      6.33000000	     -3.67889864	      7.20655546	   -139.56232460	      0.63623145	      0.96217713	      0.75614247	     13.40741169	     15.44728038	     -7.76520230	    -22.17647201	      8.47311211	     -5.76916673	     18.97371904	    -13.69366265	      7.90936375	    -48.93259075	     12.58656536	      0.42234776	     -0.10062287	     10.03930333	     -6.55693545
      6.34000000	     -3.51794862	      7.31529038	   -140.53286113	      0.63140802	      0.96247310	      0.75908934	     12.94407092	     15.61816174	     -6.88644119	    -21.97122629	      8.56930538	     -5.73656432	     19.48926369	    -13.66701866	      8.34317516	    -47.43993178	     12.77525292	      0.40897727	     -0.04519192	      9.99247121	     -6.09430240
      6.35000000	     -3.34842657	      7.37220855	   -141.49994953	      0.62676275	      0.96279329	      0.76204855	     12.47124889	     15.71952938	     -6.00076633	    -21.79431981	      8.67731692	     -5.68194243	     19.94223162	    -13.56419532	      8.80350029	    -45.91234754	     12.89285004	      0.49644785	     -0.02730453	      9.91264465	     -5.64759382
      6.36000000	     -3.16210646	      7.41853698	   -142.44850804	      0.62226294	      0.96308062	      0.76500601	     12.02432943	     15.78030855	     -5.14141419	    -21.63402264	      8.79171666	     -5.61534404	     20.38438746	    -13.41861735	      9.30279967	    -44.37210843	     12.95836159	      0.69638468	     -0.00362597	      9.82134433	     -5.22906554
      6.37000000	     -2.96516270	      7.44790068	   -143.37918143	      0.61789614	      0.96334473	      0.76796193	     11.59286777	     15.80116368	     -4.30175037	    -21.48803062	      8.91371510	     -5.53261441	     20.80517931	    -13.23708701	      9.83051781	    -42.82299905	     12.98705285	      1.01206691	      0.01697497	      9.71703935	     -4.83729707
